<svg viewBox="0 0 127.52917 201.08334" width="32" height="32" xmlns="http://www.w3.org/2000/svg">
    <g fill="currentColor">
        <path d="m 85.798822,23.244457 c -7.279494,6.9e-5 -13.180674,5.903241 -13.180743,13.185192 -1.3e-5,4.401069 2.183222,8.419775 5.674389,10.839364 1.005135,0.696618 1.583652,0.77734 1.717545,1.867202 0.133895,1.089863 -1.358531,2.099589 -1.358531,2.099589 L 9.8098745,104.79845 C 3.6208511,109.6143 6.9299901e-4,117.0184 0,124.86202 v 50.80232 c 8.993117e-5,14.03848 11.376666,25.4189 25.410412,25.41899 14.033746,-9e-5 25.410322,-11.38051 25.410412,-25.41899 v -38.3706 L 117.18743,85.659397 c 9.74266,-7.579389 12.53765,-20.947529 6.99788,-31.694333 -0.41375,-0.802661 -0.54519,-1.087556 -1.40652,-1.422207 -0.86133,-0.334652 -1.5537,0.03987 -2.41566,0.36341 -1.18363,0.444275 -2.4442,0.675828 -3.72331,0.675918 -5.85437,-1.1e-5 -10.60028,-4.747515 -10.60029,-10.603865 1e-4,-0.79474 0.1408,-1.260734 -0.0941,-1.755269 -0.23492,-0.494534 -0.86037,-0.814194 -1.47515,-0.884414 -1.02089,-0.116603 -2.04847,-0.171223 -3.07711,-0.163347 -1.00932,0.0077 -1.776133,-0.08297 -2.211289,-0.821459 -0.435196,-0.738484 -0.201991,-1.584813 -0.201829,-2.924182 -6.9e-5,-7.282152 -5.901565,-13.185406 -13.18126,-13.185192 z" style="color: currentColor; font: medium sans-serif; font-feature-settings: normal; font-variation-settings: normal; text-indent: 0px; text-align: start; text-decoration: none solid rgb(0, 0, 0); letter-spacing: normal; word-spacing: normal; text-transform: none; writing-mode: lr-tb; direction: ltr; text-orientation: mixed; dominant-baseline: auto; baseline-shift: baseline; text-anchor: start; white-space: normal; shape-margin: 0px; inline-size: 0px; clip-rule: nonzero; display: inline; overflow: visible; opacity: 1; isolation: auto; mix-blend-mode: normal; color-interpolation: srgb; color-interpolation-filters: linearrgb; vector-effect: none; fill-opacity: 1; fill-rule: nonzero; stroke: none; stroke-width: 50.8365; stroke-linecap: round; stroke-linejoin: round; stroke-miterlimit: 4; stroke-dasharray: none; stroke-dashoffset: 0; stroke-opacity: 1; color-rendering: auto; image-rendering: auto; shape-rendering: auto; text-rendering: auto; stop-color: currentColor; stop-opacity: 1;" id="path1632" />
        <path id="path863" d="M 25.41 65.594 L 25.41 124.863 L 86.113 165.345 L 101.587 175.664" style="opacity: 1; stroke-width: 50.8; stroke-linecap: round; stroke-linejoin: round; stroke-miterlimit: 4; stroke-dasharray: none; stroke-opacity: 1; fill-opacity: 1; stroke: currentColor" />
        <ellipse cy="25.847723" cx="61.25869" id="path869-7" style="display: inline; fill-opacity: 1; stroke: none; stroke-width: 2.82255; stroke-linecap: round; stroke-linejoin: round; stroke-miterlimit: 4; stroke-dasharray: none;" rx="8.9911385" ry="8.994174"></ellipse>
        <ellipse style="display: inline; fill-opacity: 1; stroke: none; stroke-width: 1.84152; stroke-linecap: round; stroke-linejoin: round; stroke-miterlimit: 4; stroke-dasharray: none;" id="path869-7-5" cx="69.843498" cy="8.4063807" rx="5.8661027" ry="5.868083"></ellipse>
        <ellipse cy="4.0971737" cx="53.87006" id="circle1672" style="display: inline; fill-opacity: 1; stroke: none; stroke-width: 1.28577; stroke-linecap: round; stroke-linejoin: round; stroke-miterlimit: 4; stroke-dasharray: none;" rx="4.0957913" ry="4.0971737"></ellipse>
        <ellipse style="display: inline; fill-opacity: 1; stroke: none; stroke-width: 2.2559; stroke-linecap: round; stroke-linejoin: round; stroke-miterlimit: 4; stroke-dasharray: none;" id="circle1680" cx="116.63974" cy="42.97831" rx="7.1861072" ry="7.1885328"></ellipse>
    </g>
</svg>