<svg role="img" viewBox="0 0 180 181" width="32" height="32" xmlns="http://www.w3.org/2000/svg">
    <g transform="translate(0.000000,181.000000) scale(0.050000,-0.050000)" stroke="none">
        <path fill="currentColor" d="M1430 3571 c-1229 -268 -1819 -1683 -1139 -2734 973 -1505 3306 -809 3297 983 -6 1137 -1057 1990 -2158 1751z m303 -1745 c-4 -4 -161 -5 -349 -1 l-342 5 344 596 344 595 5 -593 c3 -327 2 -597 -2 -602z m466 626 c177 -306 331 -574 342 -595 20 -35 6 -37 -330 -37 l-351 0 0 603 c0 332 4 600 8 595 5 -4 153 -259 331 -566z m913 -765 c-7 -18 -62 -117 -123 -220 l-110 -187 -1079 0 -1079 0 -110 187 c-61 103 -116 202 -123 220 -11 30 96 33 1312 33 1216 0 1323 -3 1312 -33z m-312 -538 c0 -5 -55 -104 -122 -220 l-122 -209 -756 0 -756 0 -122 209 c-67 116 -122 215 -122 220 0 6 450 11 1000 11 550 0 1000 -5 1000 -11z" />
    </g>
</svg>